<svg width="41" height="40" viewBox="0 0 41 40" fill="none" xmlns="http://www.w3.org/2000/svg">
<path d="M20.972 15.193C18.3118 15.193 16.1649 17.3399 16.1649 20C16.1649 22.6602 18.3118 24.807 20.972 24.807C23.6321 24.807 25.779 22.6602 25.779 20C25.779 17.3399 23.6321 15.193 20.972 15.193ZM20.972 23.1242C19.2517 23.1242 17.8478 21.7203 17.8478 20C17.8478 18.2797 19.2517 16.8758 20.972 16.8758C22.6923 16.8758 24.0962 18.2797 24.0962 20C24.0962 21.7203 22.6923 23.1242 20.972 23.1242ZM25.9759 13.8758C25.3548 13.8758 24.8532 14.3774 24.8532 14.9985C24.8532 15.6195 25.3548 16.1211 25.9759 16.1211C26.597 16.1211 27.0985 15.6219 27.0985 14.9985C27.0987 14.851 27.0698 14.7049 27.0135 14.5686C26.9571 14.4323 26.8744 14.3085 26.7701 14.2042C26.6658 14.0999 26.542 14.0172 26.4057 13.9609C26.2694 13.9045 26.1234 13.8756 25.9759 13.8758ZM30.3423 20C30.3423 18.7063 30.354 17.4242 30.2813 16.1328C30.2087 14.6328 29.8665 13.3016 28.7696 12.2047C27.6704 11.1055 26.3415 10.7656 24.8415 10.693C23.5478 10.6203 22.2657 10.632 20.9743 10.632C19.6806 10.632 18.3985 10.6203 17.1071 10.693C15.6071 10.7656 14.2759 11.1078 13.179 12.2047C12.0798 13.3039 11.7399 14.6328 11.6673 16.1328C11.5946 17.4266 11.6063 18.7086 11.6063 20C11.6063 21.2914 11.5946 22.5758 11.6673 23.8672C11.7399 25.3672 12.0821 26.6985 13.179 27.7953C14.2782 28.8945 15.6071 29.2344 17.1071 29.307C18.4009 29.3797 19.6829 29.368 20.9743 29.368C22.2681 29.368 23.5501 29.3797 24.8415 29.307C26.3415 29.2344 27.6728 28.8922 28.7696 27.7953C29.8688 26.6961 30.2087 25.3672 30.2813 23.8672C30.3563 22.5758 30.3423 21.2938 30.3423 20ZM28.2798 25.5266C28.1087 25.9531 27.9024 26.2719 27.572 26.6C27.2415 26.9305 26.9251 27.1367 26.4985 27.3078C25.2657 27.7977 22.3384 27.6875 20.972 27.6875C19.6056 27.6875 16.6759 27.7977 15.4431 27.3102C15.0165 27.1391 14.6978 26.9328 14.3696 26.6024C14.0392 26.2719 13.8329 25.9555 13.6618 25.5289C13.1743 24.2938 13.2845 21.3664 13.2845 20C13.2845 18.6336 13.1743 15.7039 13.6618 14.4711C13.8329 14.0445 14.0392 13.7258 14.3696 13.3977C14.7001 13.0695 15.0165 12.861 15.4431 12.6899C16.6759 12.2024 19.6056 12.3125 20.972 12.3125C22.3384 12.3125 25.2681 12.2024 26.5009 12.6899C26.9274 12.861 27.2462 13.0672 27.5743 13.3977C27.9048 13.7281 28.111 14.0445 28.2821 14.4711C28.7696 15.7039 28.6595 18.6336 28.6595 20C28.6595 21.3664 28.7696 24.2938 28.2798 25.5266Z" fill="#E0E0E0"/>
</svg>
