<svg width="41" height="40" viewBox="0 0 41 40" fill="none" xmlns="http://www.w3.org/2000/svg">
<path d="M13.955 15.197C15.1634 15.197 16.143 14.2174 16.143 13.009C16.143 11.8006 15.1634 10.821 13.955 10.821C12.7466 10.821 11.767 11.8006 11.767 13.009C11.767 14.2174 12.7466 15.197 13.955 15.197Z" fill="#E0E0E0"/>
<path d="M18.209 16.855V28.994H21.978V22.991C21.978 21.407 22.276 19.873 24.24 19.873C26.177 19.873 26.201 21.684 26.201 23.091V28.995H29.972V22.338C29.972 19.068 29.268 16.555 25.446 16.555C23.611 16.555 22.381 17.562 21.878 18.515H21.827V16.855H18.209ZM12.067 16.855H15.842V28.994H12.067V16.855Z" fill="#E0E0E0"/>
</svg>

